# xmcd CD database file
#
# Track frame offsets:
#        150
#        18479
#        32231
#        48074
#        62879
#        83261
#        103643
#        119366
#        128145
#        143507
#        160608
#
# Disc length: 2465 seconds
#
# Revision: 0
# Processed by: cddbd v1.5.2PL0 Copyright (c) Steve Scherf et al.
# Submitted via: CUERipper 2.1.4
#
DISCID=80099f0b
DTITLE=Tim Bluhm - House of Bluhm
DYEAR=2008
DGENRE=Folk/Rock
TTITLE0=Letter From a Bus
TTITLE1=You Can't Dive In
TTITLE2=Spooked Cat Blues
TTITLE3=The Hand
TTITLE4=Dear Wild Animal
TTITLE5=Black Telegram
TTITLE6=Squeaky Wheel
TTITLE7=For a Secret
TTITLE8=Cow Hollow Folly
TTITLE9=Shorebird
TTITLE10=Dora Lee
EXTD=
EXTT0=
EXTT1=
EXTT2=
EXTT3=
EXTT4=
EXTT5=
EXTT6=
EXTT7=
EXTT8=
EXTT9=
EXTT10=
PLAYORDER=
